<svg viewBox="0 0 1200 1200" xmlns="http://www.w3.org/2000/svg" xmlns:xlink="http://www.w3.org/1999/xlink"><clipPath id="a"><path d="m600 360v300h300v-600h-300z"/></clipPath><linearGradient id="b" gradientTransform="matrix(576 0 0 -576 -169313.23 574549.24)" gradientUnits="userSpaceOnUse" x1="294.99" x2="294.99" y1="996.36" y2="997.36"><stop offset="0" stop-color="#1478c8"/><stop offset="1" stop-color="#288cdc"/></linearGradient><clipPath id="c"><path d="m600 360-46.88 265.9 265.89 46.88 93.77-531.79-265.9-46.89z"/></clipPath><linearGradient id="d" gradientTransform="matrix(297.34 424.65 424.65 -297.34 -510364.1 171530.83)" x1="294.87" x2="294.87" xlink:href="#b" y1="996.29" y2="997.29"/><clipPath id="e"><path d="m600 360-82.09 225.53 225.53 82.08 164.17-451.05-225.52-82.09z"/></clipPath><linearGradient id="f" gradientTransform="matrix(194.74 417.63 417.63 -194.74 -473047.52 71365.66)" x1="294.75" x2="294.75" xlink:href="#b" y1="996.2" y2="997.2"/><clipPath id="g"><path d="m600 360-105 181.87 181.87 105 210-363.74-181.87-105z"/></clipPath><linearGradient id="h" gradientTransform="matrix(349.18 201.6 201.6 -349.18 -303183.19 288951.76)" x1="294.61" x2="294.61" xlink:href="#b" y1="996.08" y2="997.08"/><clipPath id="i"><path d="m600 360-115.7 137.89 137.89 115.7 231.4-275.78-137.89-115.7z"/></clipPath><linearGradient id="j" gradientTransform="matrix(264.75 222.15 222.15 -264.75 -298707.29 198738.28)" x1="294.47" x2="294.47" xlink:href="#b" y1="995.9" y2="996.9"/><clipPath id="k"><path d="m600 360-114.91 96.42 96.42 114.91 229.82-192.84-96.42-114.91z"/></clipPath><linearGradient id="l" gradientTransform="matrix(-25.1 286.9 286.9 25.1 -277819.34 -109079.69)" x1="294.3" x2="294.3" xlink:href="#b" y1="995.67" y2="996.67"/><clipPath id="m"><path d="m600 360-103.92 60 60 103.92 207.84-120-60-103.92z"/></clipPath><linearGradient id="n" gradientTransform="matrix(115.2 199.53 199.53 -115.2 -231980.32 56400.31)" x1="294.09" x2="294.09" xlink:href="#b" y1="995.34" y2="996.34"/><clipPath id="o"><path d="m600 360-84.57 30.78 30.78 84.58 169.14-61.57-30.78-84.57z"/></clipPath><linearGradient id="p" gradientTransform="matrix(-73.03 156.61 156.61 73.03 -133818.18 -118337.46)" x1="293.8" x2="293.8" xlink:href="#b" y1="994.8" y2="995.8"/><clipPath id="q"><path d="m600 360-59.09 10.42 10.42 59.09 118.18-20.84-10.42-59.09z"/></clipPath><linearGradient id="r" gradientTransform="matrix(-112.03 26.85 26.85 112.03 6760.89 -118902.05)" x1="293.3" x2="293.3" xlink:href="#b" y1="993.78" y2="994.78"/><clipPath id="s"><path d="m600 360h-30v30h60v-30z"/></clipPath><linearGradient id="t" gradientTransform="matrix(-49.24 29.89 29.89 49.24 -14659.79 -57178.79)" x1="291.94" x2="291.94" xlink:href="#b" y1="990.88" y2="991.88"/><linearGradient id="u" gradientTransform="matrix(426.3 0 0 90.96 -125324.39 -89700.66)" x1="294.81" x2="294.81" xlink:href="#b" y1="993.75" y2="994.75"/><linearGradient id="v" gradientTransform="matrix(379.08 0 0 90.96 -110873.4 -89700.66)" x1="294.72" x2="294.72" xlink:href="#b" y1="993.75" y2="994.75"/><clipPath id="w"><path d="m200 1030v150h150v-300h-150z"/></clipPath><linearGradient id="x" gradientTransform="matrix(288 0 0 -288 -84609.16 288227.17)" x1="294.48" x2="294.48" xlink:href="#b" y1="996.71" y2="997.71"/><clipPath id="y"><path d="m200 1030-46.17 126.86 126.86 46.17 92.34-253.71-126.86-46.18z"/></clipPath><linearGradient id="z" gradientTransform="matrix(109.54 234.91 234.91 -109.54 -266199.42 41124.91000000001)" x1="294.16" x2="294.16" xlink:href="#b" y1="996.35" y2="997.35"/><clipPath id="A"><path d="m200 1030-77.14 91.93 91.93 77.13 154.27-183.85-91.93-77.14z"/></clipPath><linearGradient id="B" gradientTransform="matrix(-147.87 176.69 176.69 147.87 -132378.42 -198239.17)" x1="293.95" x2="293.95" xlink:href="#b" y1="995.86" y2="996.86"/><clipPath id="C"><path d="m200 1030-90.93 52.5 52.5 90.93 181.86-105-52.5-90.93z"/></clipPath><linearGradient id="D" gradientTransform="matrix(20.53 200.55 200.55 -20.53 -205530.79 -37469.79)" x1="293.89" x2="293.89" xlink:href="#b" y1="995.24" y2="996.24"/><clipPath id="E"><path d="m200 1030-88.63 15.63 15.63 88.63 177.26-31.26-15.63-88.63z"/></clipPath><linearGradient id="F" gradientTransform="matrix(-48.4 165.88 165.88 48.4 -150628.69 -95901.74)" x1="294.04" x2="294.04" xlink:href="#b" y1="994.52" y2="995.52"/><clipPath id="G"><path d="m200 1030-73.86-13.02-13.02 73.86 147.72 26.04 13.02-73.86z"/></clipPath><linearGradient id="H" gradientTransform="matrix(-110.75 92.03 92.03 110.75 -58687.44 -136184.34)" x1="294.46" x2="294.46" xlink:href="#b" y1="993.73" y2="994.73"/><clipPath id="I"><path d="m200 1030-51.96-30-30 51.96 103.92 60 30-51.96z"/></clipPath><linearGradient id="J" gradientTransform="matrix(-81.46 81.46 81.46 81.46 -56670.78 -103940.69)" x1="295.24" x2="295.24" xlink:href="#b" y1="992.9" y2="993.9"/><clipPath id="K"><path d="m200 1030-28.93-34.47-34.47 28.92 57.85 68.95 34.48-28.93z"/></clipPath><linearGradient id="L" gradientTransform="matrix(-85.11 -14.88 -14.88 85.11 40210.46 -79026.33)" x1="296.6" x2="296.6" xlink:href="#b" y1="991.98" y2="992.98"/><clipPath id="M"><path d="m200 1030-10.26-28.19-28.19 10.26 20.52 56.38 28.19-10.26z"/></clipPath><linearGradient id="N" gradientTransform="matrix(-54.13 19.7 19.7 54.13 -3141.82 -58523.04)" x1="299.1" x2="299.1" xlink:href="#b" y1="990.9" y2="991.9"/><clipPath id="O"><path d="m200 1030v-15h-15v30h15z"/></clipPath><linearGradient id="P" gradientTransform="matrix(-28.8 0 0 28.8 9005.42 -27464.2)" x1="305.74" x2="305.74" xlink:href="#b" y1="988.88" y2="989.88"/><clipPath id="Q"><path d="m600 1030v150h150v-300h-150z"/></clipPath><linearGradient id="R" gradientTransform="matrix(288 0 0 -288 -84209.16 288227.17)" x1="294.48" x2="294.48" xlink:href="#b" y1="996.71" y2="997.71"/><clipPath id="S"><path d="m600 1030-67.5 116.91 116.91 67.5 135-233.82-116.91-67.5z"/></clipPath><linearGradient id="T" gradientTransform="matrix(183.67 182.89 182.89 -183.67 -235694.34 130287.81)" x1="294.12" x2="294.12" xlink:href="#b" y1="996.12" y2="997.12"/><clipPath id="U"><path d="m600 1030-103.92 60 60 103.92 207.84-120-60-103.92z"/></clipPath><linearGradient id="V" gradientTransform="matrix(115.2 199.53 199.53 -115.2 -231980.32 57070.31)" x1="294.09" x2="294.09" xlink:href="#b" y1="995.34" y2="996.34"/><clipPath id="W"><path d="m600 1030h-105v105h210v-105z"/></clipPath><linearGradient id="X" gradientTransform="matrix(0 201.6 201.6 0 -199999.45 -58337.79)" x1="294.48" x2="294.48" xlink:href="#b" y1="994.54" y2="995.54"/><clipPath id="Y"><path d="m600 1030-77.94-45-45 77.94 155.88 90 45-77.94z"/></clipPath><linearGradient id="Z" gradientTransform="matrix(-122.53 121.85 121.85 122.53 -84381.64 -156800.57)" x1="295.33" x2="295.33" xlink:href="#b" y1="993.93" y2="994.93"/><clipPath id="aa"><path d="m600 1030-37.5-64.95-64.95 37.5 75 129.9 64.95-37.5z"/></clipPath><linearGradient id="ab" gradientTransform="matrix(-124.71 72 72 124.71 -34002.24 -144311.92)" x1="296.56" x2="296.56" xlink:href="#b" y1="993.74" y2="994.74"/><clipPath id="ac"><path d="m600 1030v-60h-60v120h60z"/></clipPath><linearGradient id="ad" gradientTransform="matrix(-115.2 0 0 115.2 34936.71 -113561.82)" x1="298.06" x2="298.06" xlink:href="#b" y1="994.22" y2="995.22"/><clipPath id="ae"><path d="m600 1030 22.5-38.97-38.97-22.5-45 77.94 38.97 22.5z"/></clipPath><linearGradient id="af" gradientTransform="matrix(-74.82 -43.2 -43.2 74.82 66054.47 -60562.13)" x1="299.64" x2="299.64" xlink:href="#b" y1="995.65" y2="996.65"/><clipPath id="ag"><path d="m600 1030 25.98-15-15-25.98-51.96 30 15 25.98z"/></clipPath><linearGradient id="ah" gradientTransform="matrix(-28.8 -49.88 -49.88 28.8 59113.61 -12724.03)" x1="301.14" x2="301.14" xlink:href="#b" y1="998.65" y2="999.65"/><clipPath id="ai"><path d="m600 1030h15v-15h-30v15z"/></clipPath><linearGradient id="aj" gradientTransform="matrix(0 -28.8 -28.8 0 29594.2 9745.42)" x1="302.62" x2="302.62" xlink:href="#b" y1="1006.24" y2="1007.24"/><clipPath id="ak"><path d="m1000 1030v150h150v-300h-150z"/></clipPath><linearGradient id="al" gradientTransform="matrix(288 0 0 -288 -83809.16 288227.17)" x1="294.48" x2="294.48" xlink:href="#b" y1="996.71" y2="997.71"/><clipPath id="am"><path d="m1000 1030-86.78 103.42 103.42 86.77 173.55-206.83-103.41-86.78z"/></clipPath><linearGradient id="an" gradientTransform="matrix(198.56 166.61 166.61 -198.56 -223407 149864.98)" x1="294.12" x2="294.12" xlink:href="#b" y1="995.87" y2="996.87"/><clipPath id="ao"><path d="m1000 1030-118.18 20.84 20.84 118.18 236.36-41.68-20.84-118.18z"/></clipPath><linearGradient id="ap" gradientTransform="matrix(40.01 226.9 226.9 -40.01 -236633.56 -25945.34)" x1="294.4" x2="294.4" xlink:href="#b" y1="994.9" y2="995.9"/><clipPath id="aq"><path d="m1000 1030-90.93-52.5-52.5 90.93 181.86 105 52.5-90.93z"/></clipPath><linearGradient id="ar" gradientTransform="matrix(-194.73 52.18 52.18 194.73 6611.34 -208084.42)" x1="295.35" x2="295.35" xlink:href="#b" y1="994.23" y2="995.23"/><clipPath id="as"><path d="m1000 1030-30.78-84.57-84.58 30.78 61.57 169.14 84.57-30.78z"/></clipPath><linearGradient id="at" gradientTransform="matrix(-124.07 -120.27 -120.27 124.07 157460.88 -86712.15)" x1="296.7" x2="296.7" xlink:href="#b" y1="994.3" y2="995.3"/><clipPath id="au"><path d="m1000 1030 25.65-70.48-70.48-25.65-51.3 140.96 70.48 25.65z"/></clipPath><linearGradient id="av" gradientTransform="matrix(-99.74 -103.86 -103.86 99.74 134147.84 -67357.8)" x1="297.91" x2="297.91" xlink:href="#b" y1="995.37" y2="996.37"/><clipPath id="aw"><path d="m1000 1030 51.96-30-30-51.96-103.92 60 30 51.96z"/></clipPath><linearGradient id="ax" gradientTransform="matrix(81.78 -81.14 -81.14 -81.78 57563.35 106837.11)" x1="298.32" x2="298.32" xlink:href="#b" y1="997.33" y2="998.33"/><clipPath id="ay"><path d="m1000 1030 44.32 7.82 7.81-44.32-88.63-15.63-7.82 44.31z"/></clipPath><linearGradient id="az" gradientTransform="matrix(15 -85.09 -85.09 -15 81651.11 41329.03)" x1="297.24" x2="297.24" xlink:href="#b" y1="999.77" y2="1000.77"/><clipPath id="aA"><path d="m1000 1030 19.28 22.98 22.99-19.28-38.57-45.96-22.98 19.28z"/></clipPath><linearGradient id="aB" gradientTransform="matrix(40.87 40.59 40.59 -40.87 -51701.98 30072.11)" x1="293.86" x2="293.86" xlink:href="#b" y1="1002.01" y2="1003.01"/><clipPath id="aC"><path d="m1000 1030v15h15v-30h-15z"/></clipPath><linearGradient id="aD" gradientTransform="matrix(10.75 26.72 26.72 -10.75 -28881.13 4202.44)" x1="285.26" x2="285.26" xlink:href="#b" y1="1003.12" y2="1004.12"/><path d="m0 0h1200v1200h-1200z" fill="#fff"/><g clip-path="url(#a)"><circle cx="600" cy="360" fill="url(#b)" r="288"/></g><circle cx="600" cy="360" fill="#fff" r="273.6"/><g clip-path="url(#c)"><circle cx="600" cy="360" fill="url(#d)" r="259.2" transform="matrix(.70710678 -.70710678 .70710678 .70710678 -78.82 529.71)"/></g><circle cx="600" cy="360" fill="#fff" r="244.8"/><g clip-path="url(#e)"><circle cx="600" cy="360" fill="url(#f)" r="230.4" transform="matrix(.70710678 -.70710678 .70710678 .70710678 -78.82 529.71)"/></g><circle cx="600" cy="360" fill="#fff" r="216"/><g clip-path="url(#g)"><circle cx="600" cy="360" fill="url(#h)" r="201.6"/></g><circle cx="600" cy="360" fill="#fff" r="187.2"/><g clip-path="url(#i)"><circle cx="600" cy="360" fill="url(#j)" r="172.8"/></g><circle cx="600" cy="360" fill="#fff" r="158.4"/><g clip-path="url(#k)"><circle cx="600" cy="360" fill="url(#l)" r="144" transform="matrix(.70710678 -.70710678 .70710678 .70710678 -78.82 529.71)"/></g><circle cx="600" cy="360" fill="#fff" r="129.6"/><g clip-path="url(#m)"><path d="m699.77 302.4a115.2 115.2 0 1 1 -157.37-42.17 115.21 115.21 0 0 1 157.37 42.17z" fill="url(#n)"/></g><circle cx="600" cy="360" fill="#fff" r="100.8"/><g clip-path="url(#o)"><circle cx="600" cy="360" fill="url(#p)" r="86.4" transform="matrix(.70710678 -.70710678 .70710678 .70710678 -78.82 529.71)"/></g><circle cx="600" cy="360" fill="#fff" r="72"/><g clip-path="url(#q)"><circle cx="600" cy="360" fill="url(#r)" r="57.6" transform="matrix(.06070012 -.99815605 .99815605 .06070012 204.26 937.05)"/></g><circle cx="600" cy="360" fill="#fff" r="43.2" transform="matrix(.15608969 -.98774289 .98774289 .15608969 150.72 896.42)"/><g clip-path="url(#s)"><circle cx="600" cy="360" fill="url(#t)" r="28.8" transform="matrix(.51892246 -.85482131 .85482131 .51892246 -19.1 686.06)"/></g><circle cx="600" cy="360" fill="#fff" r="14.4" transform="matrix(.99999194 -.00401425 .00401425 .99999194 -1.42 2.37)"/><path d="m157.06 701.34v64h36.12q4.32 0 6.63 2.1a6.83 6.83 0 0 1 2.31 5.28 6.67 6.67 0 0 1 -2.28 5.25q-2.28 2-6.66 2h-43q-5.82 0-8.37-2.58t-2.55-8.34v-67.71q0-5.4 2.43-8.1a8.19 8.19 0 0 1 6.39-2.7 8.49 8.49 0 0 1 6.51 2.67q2.47 2.67 2.47 8.13zm95.46-10.8q13.68 0 23.49 5.55a36 36 0 0 1 14.85 15.78q5 10.23 5 24a58.78 58.78 0 0 1 -2.76 18.54 40.11 40.11 0 0 1 -8.28 14.46 36.17 36.17 0 0 1 -13.56 9.36 53.46 53.46 0 0 1 -36.9-.09 36.66 36.66 0 0 1 -13.62-9.39 40.11 40.11 0 0 1 -8.25-14.58 58.86 58.86 0 0 1 -2.79-18.42 56.87 56.87 0 0 1 2.91-18.6 39.9 39.9 0 0 1 8.43-14.4 36.46 36.46 0 0 1 13.44-9.09 48.39 48.39 0 0 1 18.04-3.12zm25.32 45.24a41.27 41.27 0 0 0 -3.12-16.78 23.29 23.29 0 0 0 -8.91-10.71 24.49 24.49 0 0 0 -13.29-3.63 24.06 24.06 0 0 0 -9.87 2 21.69 21.69 0 0 0 -7.8 5.85 28 28 0 0 0 -5.16 9.81 44.33 44.33 0 0 0 -1.89 13.41 45.44 45.44 0 0 0 1.89 13.56 27.8 27.8 0 0 0 5.34 10 22.43 22.43 0 0 0 7.92 6 25 25 0 0 0 22.38-1.44 23.64 23.64 0 0 0 9.12-10.56q3.39-7.07 3.39-17.51zm57.24 6.6h-6.24v28.26q0 5.58-2.46 8.22a8.37 8.37 0 0 1 -6.38 2.64 8.18 8.18 0 0 1 -6.6-2.76q-2.4-2.74-2.4-8.1v-67.64q0-5.76 2.58-8.34t8.34-2.58h29a88 88 0 0 1 10.26.51 25.79 25.79 0 0 1 7.68 2.07 22.24 22.24 0 0 1 7.32 5 21.81 21.81 0 0 1 4.83 7.53 25.1 25.1 0 0 1 1.65 9.09q0 9.84-5.55 15.72t-16.83 8.34a32.58 32.58 0 0 1 9.06 7.44 75.45 75.45 0 0 1 7.71 10.47 77.57 77.57 0 0 1 5.28 10q1.89 4.47 1.89 6.15a6.28 6.28 0 0 1 -1.11 3.45 7.78 7.78 0 0 1 -3 2.7 9.56 9.56 0 0 1 -4.44 1 8.65 8.65 0 0 1 -5-1.41 13.56 13.56 0 0 1 -3.51-3.57q-1.47-2.16-4-6.36l-7.16-11.93a65.36 65.36 0 0 0 -6.87-10 17 17 0 0 0 -6.15-4.68 21.14 21.14 0 0 0 -7.9-1.22zm10.2-37h-16.44v24.22h16a44.71 44.71 0 0 0 10.8-1.11 12.67 12.67 0 0 0 6.69-3.78 10.86 10.86 0 0 0 2.31-7.35 11.36 11.36 0 0 0 -1.86-6.45 11.24 11.24 0 0 0 -5.16-4.17q-3.16-1.32-12.34-1.32zm112.2.36h-40.14v21.6h37q4.08 0 6.09 1.83a6.22 6.22 0 0 1 2 4.83 6.46 6.46 0 0 1 -2 4.89q-2 1.89-6.12 1.89h-37v25h41.52q4.2 0 6.33 1.95a6.7 6.7 0 0 1 2.13 5.19 6.56 6.56 0 0 1 -2.13 5.07q-2.13 2-6.33 2h-48.39q-5.82 0-8.37-2.58t-2.55-8.34v-66.07a14.83 14.83 0 0 1 1.14-6.27 7.08 7.08 0 0 1 3.57-3.54 15 15 0 0 1 6.21-1.11h47q4.26 0 6.33 1.89a6.39 6.39 0 0 1 2.07 5 6.46 6.46 0 0 1 -2.07 5q-2.03 1.81-6.29 1.81zm53.7 61-14.1-56v60.72q0 5-2.25 7.56a8.26 8.26 0 0 1 -11.83-.02q-2.28-2.49-2.28-7.59v-69.6q0-5.76 3-7.77a14.37 14.37 0 0 1 8.1-2h5.52a21.05 21.05 0 0 1 7.23.9 6.07 6.07 0 0 1 3.33 3.24 50.29 50.29 0 0 1 2.46 7.62l12.76 48.2 12.78-48.2a50.29 50.29 0 0 1 2.46-7.62 6.07 6.07 0 0 1 3.33-3.24 21.05 21.05 0 0 1 7.23-.9h5.52a14.37 14.37 0 0 1 8.1 2q3 2 3 7.77v69.6q0 5-2.25 7.56a7.68 7.68 0 0 1 -6 2.52 7.5 7.5 0 0 1 -5.82-2.52q-2.28-2.52-2.28-7.56v-60.71l-14.1 56q-1.38 5.46-2.25 8a11.06 11.06 0 0 1 -3.21 4.65 9.36 9.36 0 0 1 -6.48 2.1 9.48 9.48 0 0 1 -8.64-4.8 19.7 19.7 0 0 1 -1.89-4.65q-.72-2.5-1.44-5.26z" fill="url(#u)"/><path d="m660.32 770.64v-69.3q0-5.4 2.46-8.1a8.21 8.21 0 0 1 6.36-2.7 8.49 8.49 0 0 1 6.51 2.67q2.49 2.67 2.49 8.13v69.3q0 5.46-2.49 8.16a8.44 8.44 0 0 1 -6.51 2.7 8.19 8.19 0 0 1 -6.33-2.73q-2.49-2.77-2.49-8.13zm71.88-24.9h-16.32v24.9q0 5.34-2.52 8.1a8.88 8.88 0 0 1 -12.84 0q-2.46-2.73-2.46-8v-67.74q0-5.88 2.7-8.4t8.58-2.52h22.86q10.14 0 15.6 1.56a23.23 23.23 0 0 1 9.33 5 22.45 22.45 0 0 1 6 8.52 30 30 0 0 1 2 11.34q0 13.44-8.28 20.37t-24.65 6.87zm-4.32-40.32h-12v26.88h12a35.85 35.85 0 0 0 10.53-1.3 12.27 12.27 0 0 0 6.45-4.32 12.89 12.89 0 0 0 2.22-7.86 13.33 13.33 0 0 0 -3.42-9.48q-3.84-3.92-15.78-3.92zm119 48.18a25.85 25.85 0 0 1 -4.11 14.34 27.3 27.3 0 0 1 -12 10 45.08 45.08 0 0 1 -18.78 3.6q-13 0-21.48-4.92a28.62 28.62 0 0 1 -9.75-9.45 21.45 21.45 0 0 1 -3.76-11.53 7.79 7.79 0 0 1 8-7.86 6.77 6.77 0 0 1 4.77 1.8 14.16 14.16 0 0 1 3.33 5.34 35.68 35.68 0 0 0 3.63 7 14.72 14.72 0 0 0 5.49 4.65 20.29 20.29 0 0 0 9.3 1.83q7.92 0 12.87-3.69t4.95-9.21a9.74 9.74 0 0 0 -2.67-7.11 17.22 17.22 0 0 0 -6.9-4.17q-4.23-1.44-11.31-3.06a83 83 0 0 1 -15.93-5.16 25.65 25.65 0 0 1 -10.14-8.1 21 21 0 0 1 -3.75-12.75 21.9 21.9 0 0 1 4-12.9 25 25 0 0 1 11.46-8.67 46.93 46.93 0 0 1 17.64-3 43.63 43.63 0 0 1 14 2 29.61 29.61 0 0 1 9.81 5.34 22.31 22.31 0 0 1 5.7 7 16.12 16.12 0 0 1 1.75 7.08 8.44 8.44 0 0 1 -2.25 5.73 7.18 7.18 0 0 1 -5.61 2.55 6.45 6.45 0 0 1 -4.65-1.53 20.62 20.62 0 0 1 -3.45-5 22.71 22.71 0 0 0 -5.74-7.75q-3.36-2.79-10.8-2.79-6.9 0-11.13 3t-4.23 7.29a7.39 7.39 0 0 0 1.44 4.56 12.12 12.12 0 0 0 4 3.3 26.7 26.7 0 0 0 5.1 2.16q2.58.78 8.52 2.28a133.69 133.69 0 0 1 13.47 3.84 40.93 40.93 0 0 1 10.26 5.1 21 21 0 0 1 6.6 7.59 24.31 24.31 0 0 1 2.33 11.27zm15.24-10v-42.3q0-5.4 2.43-8.1a8.19 8.19 0 0 1 6.39-2.7 8.4 8.4 0 0 1 6.57 2.7q2.43 2.7 2.43 8.1v43.3a39.47 39.47 0 0 0 1.65 12.33 14.23 14.23 0 0 0 5.85 7.68q4.2 2.73 11.76 2.73 10.44 0 14.76-5.55t4.3-16.79v-43.66q0-5.46 2.4-8.13a8.21 8.21 0 0 1 6.42-2.67 8.49 8.49 0 0 1 6.51 2.67q2.49 2.67 2.49 8.13v42.3a62.58 62.58 0 0 1 -2 17.22 26.59 26.59 0 0 1 -7.6 12.14 29.48 29.48 0 0 1 -11.16 6.48 48.84 48.84 0 0 1 -14.88 2 61.35 61.35 0 0 1 -17.44-2.17 27.94 27.94 0 0 1 -12-6.78 27.33 27.33 0 0 1 -6.78-11.76 59.81 59.81 0 0 1 -2.12-17.13zm122.88 23.14-14.1-56v60.72q0 5-2.25 7.56a8.26 8.26 0 0 1 -11.85 0q-2.28-2.49-2.28-7.59v-69.6q0-5.76 3-7.77a14.37 14.37 0 0 1 8.1-2h5.52a21.05 21.05 0 0 1 7.23.9 6.07 6.07 0 0 1 3.33 3.24 50.29 50.29 0 0 1 2.46 7.62l12.84 48.18 12.78-48.18a50.29 50.29 0 0 1 2.46-7.62 6.07 6.07 0 0 1 3.33-3.24 21.05 21.05 0 0 1 7.23-.9h5.52a14.37 14.37 0 0 1 8.1 2q3 2 3 7.77v69.6q0 5-2.25 7.56a7.68 7.68 0 0 1 -6 2.52 7.5 7.5 0 0 1 -5.82-2.52q-2.28-2.52-2.28-7.56v-60.73l-14.1 56q-1.38 5.46-2.25 8a11.06 11.06 0 0 1 -3.21 4.65 9.36 9.36 0 0 1 -6.48 2.1 9.48 9.48 0 0 1 -8.64-4.8 19.7 19.7 0 0 1 -1.89-4.65q-.74-2.5-1.5-5.26z" fill="url(#v)"/><g clip-path="url(#w)"><circle cx="200" cy="1030" fill="url(#x)" r="144"/></g><circle cx="200" cy="1030" fill="#fff" r="136.8"/><g clip-path="url(#y)"><circle cx="200" cy="1030" fill="url(#z)" r="129.6" transform="matrix(.70710678 -.70710678 .70710678 .70710678 -669.74 443.1)"/></g><circle cx="200" cy="1030" fill="#fff" r="122.4" transform="matrix(.70710678 -.70710678 .70710678 .70710678 -669.74 443.1)"/><g clip-path="url(#A)"><circle cx="200" cy="1030" fill="url(#B)" r="115.2" transform="matrix(.00122173 -.99999925 .99999925 .00122173 -830.26 1228.67)"/></g><circle cx="200" cy="1030" fill="#fff" r="108"/><g clip-path="url(#C)"><circle cx="200" cy="1030" fill="url(#D)" r="100.8" transform="matrix(.91240607 -.40928615 .40928615 .91240607 -403.98 172.03)"/></g><circle cx="200" cy="1030" fill="#fff" r="93.6"/><g clip-path="url(#E)"><circle cx="200" cy="1030" fill="url(#F)" r="86.4" transform="matrix(.89679553 -.44244522 .44244522 .89679553 -435.14 194.84)"/></g><circle cx="200" cy="1030" fill="#fff" r="79.2"/><g clip-path="url(#G)"><circle cx="200" cy="1030" fill="url(#H)" r="72" transform="matrix(.76289406 -.64652352 .64652352 .76289406 -618.44 373.46)"/></g><circle cx="200" cy="1030" fill="#fff" r="64.8"/><g clip-path="url(#I)"><circle cx="200" cy="1030" fill="url(#J)" r="57.6" transform="matrix(.96592583 -.25881905 .25881905 .96592583 -259.77 86.86)"/></g><circle cx="200" cy="1030" fill="#fff" r="50.4"/><g clip-path="url(#K)"><circle cx="200" cy="1030" fill="url(#L)" r="43.2" transform="matrix(.64385658 -.7651462 .7651462 .64385658 -716.84 519.8)"/></g><circle cx="200" cy="1030" fill="#fff" r="36"/><g clip-path="url(#M)"><path d="m209.85 1057.06a28.8 28.8 0 1 1 17.21-36.91 28.79 28.79 0 0 1 -17.21 36.91z" fill="url(#N)"/></g><circle cx="200" cy="1030" fill="#fff" r="21.6"/><g clip-path="url(#O)"><circle cx="200" cy="1030" fill="url(#P)" r="14.4"/></g><circle cx="200" cy="1030" fill="#fff" r="7.2"/><g clip-path="url(#Q)"><circle cx="600" cy="1030" fill="url(#R)" r="144"/></g><circle cx="600" cy="1030" fill="#fff" r="136.8"/><g clip-path="url(#S)"><circle cx="600" cy="1030" fill="url(#T)" r="129.6" transform="matrix(.97 -.26 .26 .97 -244.35 188.59)"/></g><circle cx="600" cy="1030" fill="#fff" r="122.4"/><g clip-path="url(#U)"><path d="m699.77 972.4a115.2 115.2 0 1 1 -157.37-42.17 115.21 115.21 0 0 1 157.37 42.17z" fill="url(#V)"/></g><circle cx="600" cy="1030" fill="#fff" r="108"/><g clip-path="url(#W)"><circle cx="600" cy="1030" fill="url(#X)" r="100.8"/></g><circle cx="600" cy="1030" fill="#fff" r="93.6"/><g clip-path="url(#Y)"><circle cx="600" cy="1030" fill="url(#Z)" r="86.4" transform="matrix(.9651993 -.26151541 .26151541 .9651993 -248.48 192.75)"/></g><circle cx="600" cy="1030" fill="#fff" r="79.2"/><g clip-path="url(#aa)"><path d="m636 1092.35a72 72 0 1 1 26.35-98.35 72 72 0 0 1 -26.35 98.35z" fill="url(#ab)"/></g><circle cx="600" cy="1030" fill="#fff" r="64.8"/><g clip-path="url(#ac)"><circle cx="600" cy="1030" fill="url(#ad)" r="57.6"/></g><circle cx="600" cy="1030" fill="#fff" r="50.4"/><g clip-path="url(#ae)"><path d="m578.4 1067.41a43.2 43.2 0 1 1 59-15.81 43.2 43.2 0 0 1 -59 15.81z" fill="url(#af)"/></g><circle cx="600" cy="1030" fill="#fff" r="36"/><g clip-path="url(#ag)"><path d="m575.06 1044.4a28.8 28.8 0 1 1 39.34 10.54 28.8 28.8 0 0 1 -39.34-10.54z" fill="url(#ah)"/></g><circle cx="600" cy="1030" fill="#fff" r="21.6"/><g clip-path="url(#ai)"><circle cx="600" cy="1030" fill="url(#aj)" r="14.4"/></g><circle cx="600" cy="1030" fill="#fff" r="7.2"/><g clip-path="url(#ak)"><circle cx="1000" cy="1030" fill="url(#al)" r="144"/></g><circle cx="1000" cy="1030" fill="#fff" r="136.8"/><g clip-path="url(#am)"><path d="m1083.31 930.72a129.6 129.6 0 1 1 -182.59 16 129.6 129.6 0 0 1 182.59-16z" fill="url(#an)"/></g><circle cx="1000" cy="1030" fill="#fff" r="122.4"/><g clip-path="url(#ao)"><path d="m1113.45 1010a115.2 115.2 0 1 1 -133.45-93.45 115.2 115.2 0 0 1 133.45 93.45z" fill="url(#ap)"/></g><circle cx="1000" cy="1030" fill="#fff" r="108"/><g clip-path="url(#aq)"><circle cx="1000" cy="1030" fill="url(#ar)" r="100.8" transform="matrix(.70710678 -.70710678 .70710678 .70710678 -435.43 1008.79)"/></g><circle cx="1000" cy="1030" fill="#fff" r="93.6"/><g clip-path="url(#as)"><circle cx="1000" cy="1030" fill="url(#at)" r="86.4" transform="matrix(.43664478 -.899634 .899634 .43664478 -363.27 1479.88)"/></g><circle cx="1000" cy="1030" fill="#fff" r="79.2" transform="matrix(.70710678 -.70710678 .70710678 .70710678 -435.43 1008.79)"/><g clip-path="url(#au)"><circle cx="1000" cy="1030" fill="url(#av)" r="72" transform="matrix(.89756638 -.44087934 .44087934 .89756638 -351.67 546.37)"/></g><circle cx="1000" cy="1030" fill="#fff" r="64.8" transform="matrix(.70710678 -.70710678 .70710678 .70710678 -435.43 1008.79)"/><g clip-path="url(#aw)"><circle cx="1000" cy="1030" fill="url(#ax)" r="57.6" transform="matrix(.2549395 -.96695701 .96695701 .2549395 -250.95 1734.29)"/></g><circle cx="1000" cy="1030" fill="#fff" r="50.4" transform="matrix(.70710678 -.70710678 .70710678 .70710678 -435.43 1008.79)"/><g clip-path="url(#ay)"><path d="m957.46 1022.5a43.2 43.2 0 1 1 35 50 43.19 43.19 0 0 1 -35-50z" fill="url(#az)"/></g><circle cx="1000" cy="1030" fill="#fff" r="36"/><g clip-path="url(#aA)"><circle cx="1000" cy="1030" fill="url(#aB)" r="28.8" transform="matrix(.09045876 -.9959002 .9959002 .09045876 -116.31 1932.64)"/></g><circle cx="1000" cy="1030" fill="#fff" r="21.6" transform="matrix(.3689358 -.92945488 .92945488 .3689358 -326.27 1579.47)"/><g clip-path="url(#aC)"><circle cx="1000" cy="1030" fill="url(#aD)" r="14.4" transform="matrix(.37347355 -.92764083 .92764083 .37347355 -328.92 1573.03)"/></g><circle cx="1000" cy="1030" fill="#fff" r="7.2" transform="matrix(.37800238 -.92580463 .92580463 .37800238 -331.59 1566.45)"/></svg>