<?xml version="1.0" encoding="utf-8"?>
<!-- Generator: Adobe Illustrator 23.0.3, SVG Export Plug-In . SVG Version: 6.00 Build 0)  -->
<svg version="1.1" id="Layer_1" xmlns="http://www.w3.org/2000/svg" xmlns:xlink="http://www.w3.org/1999/xlink" x="0px" y="0px"
	 viewBox="0 0 216 31" style="enable-background:new 0 0 216 31;" xml:space="preserve">
<style type="text/css">
	.st0{clip-path:url(#SVGID_2_);}
	.st1{clip-path:url(#SVGID_4_);}
	.st2{clip-path:url(#SVGID_4_);fill:#FF8C1A;}
</style>
<g>
	<g>
		<g>
			<path d="M32.39,14.99c0-3.39,1.66-5.39,4.03-5.39c2.37,0,4.03,2,4.03,5.39c0,3.44-1.66,5.49-4.03,5.49
				C34.05,20.48,32.39,18.43,32.39,14.99z M39.06,14.99c0-2.64-1.06-4.21-2.64-4.21c-1.58,0-2.64,1.57-2.64,4.21
				c0,2.69,1.06,4.31,2.64,4.31C38.01,19.29,39.06,17.68,39.06,14.99z"/>
			<path d="M42.35,19.26l0.61-0.88c0.9,0.64,1.95,1.06,3.38,1.06c1.31,0,1.95-0.54,1.95-1.2c0-0.59-0.3-1.01-2.42-1.44
				c-2.03-0.42-3.04-1.1-3.04-2.27c0-1.25,1.1-2.21,3.23-2.21c1.18,0,2.37,0.46,3.14,0.99l-0.64,0.85c-0.72-0.5-1.62-0.82-2.61-0.82
				c-1.31,0-1.79,0.53-1.79,1.12c0,0.67,0.67,0.96,2.27,1.3c2.58,0.56,3.2,1.2,3.2,2.4c0,1.26-1.23,2.32-3.46,2.32
				C44.66,20.48,43.3,19.92,42.35,19.26z"/>
			<path d="M54.76,17.68V9.96H52V8.89h4.08v8.88c0,1.12,0.61,1.6,1.54,1.6c0.45,0,0.93-0.11,1.46-0.35l0.34,0.99
				c-0.72,0.3-1.23,0.46-2.08,0.46C55.67,20.48,54.76,19.52,54.76,17.68z"/>
			<path d="M61.38,16.41c0-2.61,1.79-4.1,3.84-4.1s3.84,1.49,3.84,4.1c0,2.58-1.79,4.07-3.84,4.07S61.38,18.99,61.38,16.41z
				 M67.7,16.41c0-1.79-0.99-2.99-2.48-2.99c-1.49,0-2.48,1.2-2.48,2.99c0,1.78,0.99,2.96,2.48,2.96
				C66.71,19.37,67.7,18.19,67.7,16.41z"/>
			<path d="M80.69,18.93l0.8-0.93c0.8,0.78,1.89,1.3,3.07,1.3c1.44,0,2.27-0.69,2.27-1.65c0-1.12-0.82-1.44-1.87-1.89l-1.52-0.67
				c-1.04-0.42-2.26-1.15-2.26-2.71c0-1.6,1.44-2.79,3.44-2.79c1.31,0,2.46,0.53,3.23,1.3l-0.7,0.86c-0.69-0.61-1.49-0.98-2.58-0.98
				c-1.22,0-2.03,0.58-2.03,1.52c0,1.01,0.98,1.38,1.87,1.73l1.47,0.66c1.3,0.51,2.32,1.25,2.32,2.8c0,1.67-1.41,2.99-3.71,2.99
				C82.96,20.48,81.63,19.87,80.69,18.93z"/>
			<path d="M90.5,16.41c0-2.61,1.98-4.1,4.34-4.1c1.26,0,2.19,0.51,2.83,1.14l-0.66,0.85c-0.64-0.54-1.31-0.88-2.13-0.88
				c-1.79,0-3.03,1.2-3.03,2.99c0,1.78,1.22,2.96,2.99,2.96c0.96,0,1.76-0.43,2.4-0.98l0.59,0.86c-0.86,0.77-1.94,1.22-3.09,1.22
				C92.32,20.48,90.5,18.99,90.5,16.41z"/>
			<path d="M103.86,13.58h-3.6v-1.07h4.93v7.78h-1.33V13.58z M103.33,9.85c0-0.61,0.45-1.02,1.06-1.02s1.06,0.42,1.06,1.02
				c0,0.62-0.45,1.02-1.06,1.02S103.33,10.47,103.33,9.85z"/>
			<path d="M109.51,16.38c0-2.53,1.89-4.07,3.97-4.07c2.24,0,3.55,1.46,3.55,3.65c0,0.3-0.03,0.59-0.06,0.8h-6.58v-1.02h5.79
				l-0.34,0.37c0-1.84-0.91-2.75-2.34-2.75c-1.44,0-2.69,1.09-2.69,3.02c0,2.02,1.31,3.04,3.04,3.04c0.93,0,1.66-0.29,2.37-0.74
				l0.48,0.86c-0.77,0.51-1.76,0.93-3.01,0.93C111.36,20.48,109.51,18.97,109.51,16.38z"/>
			<path d="M119.51,12.51h1.09l0.11,1.31h0.06c0.82-0.85,1.71-1.5,2.93-1.5c1.84,0,2.69,1.09,2.69,3.14v4.83h-1.33v-4.66
				c0-1.47-0.51-2.16-1.78-2.16c-0.93,0-1.55,0.46-2.45,1.39v5.43h-1.33V12.51z"/>
			<path d="M128.9,16.41c0-2.61,1.99-4.1,4.34-4.1c1.26,0,2.19,0.51,2.83,1.14l-0.66,0.85c-0.64-0.54-1.31-0.88-2.13-0.88
				c-1.79,0-3.03,1.2-3.03,2.99c0,1.78,1.22,2.96,2.99,2.96c0.96,0,1.76-0.43,2.4-0.98l0.59,0.86c-0.87,0.77-1.94,1.22-3.09,1.22
				C130.72,20.48,128.9,18.99,128.9,16.41z"/>
			<path d="M138.31,16.38c0-2.53,1.89-4.07,3.97-4.07c2.24,0,3.55,1.46,3.55,3.65c0,0.3-0.03,0.59-0.06,0.8h-6.58v-1.02h5.79
				l-0.34,0.37c0-1.84-0.91-2.75-2.34-2.75c-1.44,0-2.69,1.09-2.69,3.02c0,2.02,1.31,3.04,3.04,3.04c0.93,0,1.66-0.29,2.37-0.74
				l0.48,0.86c-0.77,0.51-1.76,0.93-3.01,0.93C140.16,20.48,138.31,18.97,138.31,16.38z"/>
			<path d="M157.57,9.79h1.63l1.47,4.48l0.51,1.7h0.06l0.5-1.7l1.49-4.48h1.63v10.5h-1.28v-5.25c0-1.02,0.16-2.82,0.22-3.71h-0.05
				l-0.59,2.05l-1.5,4.13h-0.96l-1.47-4.13l-0.61-2.05h-0.03c0.1,0.9,0.22,2.69,0.22,3.71v5.25h-1.25V9.79z"/>
			<path d="M167.25,17.34v-4.83h1.33v4.66c0,1.46,0.51,2.16,1.79,2.16c0.9,0,1.55-0.42,2.42-1.42v-5.39h1.33v7.78h-1.1l-0.11-1.36
				h-0.06c-0.78,0.91-1.7,1.55-2.9,1.55C168.1,20.48,167.25,19.39,167.25,17.34z"/>
			<path d="M176.75,19.26l0.61-0.88c0.9,0.64,1.95,1.06,3.38,1.06c1.31,0,1.95-0.54,1.95-1.2c0-0.59-0.3-1.01-2.42-1.44
				c-2.03-0.42-3.04-1.1-3.04-2.27c0-1.25,1.1-2.21,3.23-2.21c1.18,0,2.37,0.46,3.14,0.99l-0.64,0.85c-0.72-0.5-1.62-0.82-2.61-0.82
				c-1.31,0-1.79,0.53-1.79,1.12c0,0.67,0.67,0.96,2.27,1.3c2.58,0.56,3.2,1.2,3.2,2.4c0,1.26-1.23,2.32-3.46,2.32
				C179.06,20.48,177.7,19.92,176.75,19.26z"/>
			<path d="M186.31,16.38c0-2.53,1.89-4.07,3.97-4.07c2.24,0,3.55,1.46,3.55,3.65c0,0.3-0.03,0.59-0.06,0.8h-6.58v-1.02h5.79
				l-0.34,0.37c0-1.84-0.91-2.75-2.34-2.75c-1.44,0-2.69,1.09-2.69,3.02c0,2.02,1.31,3.04,3.04,3.04c0.93,0,1.66-0.29,2.37-0.74
				l0.48,0.86c-0.77,0.51-1.76,0.93-3.01,0.93C188.16,20.48,186.31,18.97,186.31,16.38z"/>
			<path d="M196.05,17.34v-4.83h1.33v4.66c0,1.46,0.51,2.16,1.79,2.16c0.9,0,1.55-0.42,2.42-1.42v-5.39h1.33v7.78h-1.1l-0.11-1.36
				h-0.06c-0.78,0.91-1.7,1.55-2.9,1.55C196.9,20.48,196.05,19.39,196.05,17.34z"/>
			<path d="M205.34,12.51h1.06l0.11,1.02h0.03c0.4-0.72,0.88-1.22,1.78-1.22c0.77,0,1.25,0.45,1.47,1.34
				c0.45-0.83,0.93-1.34,1.83-1.34c1.09,0,1.73,0.85,1.73,2.4v5.57h-1.31v-5.47c0-0.9-0.26-1.36-0.83-1.36
				c-0.54,0-0.83,0.4-1.25,1.2v5.63h-1.22v-5.47c0-0.9-0.22-1.36-0.8-1.36c-0.54,0-0.9,0.4-1.28,1.2v5.63h-1.31V12.51z"/>
		</g>
	</g>
	<g id="Icon_1_">
		<g>
			<defs>
				<rect id="SVGID_1_" x="0.92" y="3" width="26.45" height="24"/>
			</defs>
			<clipPath id="SVGID_2_">
				<use xlink:href="#SVGID_1_"  style="overflow:visible;"/>
			</clipPath>
			<rect x="13.8" y="18.53" class="st0" width="0.71" height="1.41"/>
			<rect x="13.8" y="10.06" class="st0" width="0.71" height="1.41"/>
			<rect x="9.21" y="14.65" class="st0" width="1.41" height="0.71"/>
			<rect x="17.68" y="14.65" class="st0" width="1.41" height="0.71"/>
			
				<rect x="16.79" y="17.29" transform="matrix(0.7072 -0.707 0.707 0.7072 -7.7028 17.387)" class="st0" width="0.71" height="1.41"/>
			
				<rect x="10.8" y="11.3" transform="matrix(0.7071 -0.7071 0.7071 0.7071 -5.2234 11.4036)" class="st0" width="0.71" height="1.41"/>
			
				<rect x="10.45" y="17.64" transform="matrix(0.7071 -0.7071 0.7071 0.7071 -9.4555 13.1578)" class="st0" width="1.41" height="0.71"/>
			
				<rect x="16.43" y="11.65" transform="matrix(0.7072 -0.707 0.707 0.7072 -3.4706 15.6329)" class="st0" width="1.41" height="0.71"/>
			<g class="st0">
				<defs>
					<rect id="SVGID_3_" x="0.92" y="3" width="26.45" height="24"/>
				</defs>
				<clipPath id="SVGID_4_">
					<use xlink:href="#SVGID_3_"  style="overflow:visible;"/>
				</clipPath>
				<path class="st1" d="M18.64,27c-1.28,0-2.72-0.49-4.23-1.45c-2.36-1.5-4.62-4-6.37-7.02C6.3,15.5,5.27,12.29,5.14,9.5
					C5.02,6.62,5.87,4.51,7.53,3.54c1.67-0.96,3.92-0.64,6.35,0.91c2.36,1.5,4.62,4,6.37,7.02c1.75,3.03,2.78,6.23,2.9,9.03
					c0.13,2.88-0.72,4.99-2.39,5.95C20.13,26.82,19.42,27,18.64,27 M9.66,3.71C9,3.71,8.41,3.85,7.89,4.16
					C6.46,4.98,5.73,6.87,5.85,9.47c0.12,2.68,1.12,5.77,2.81,8.7c1.69,2.93,3.87,5.34,6.13,6.78c2.19,1.4,4.19,1.72,5.62,0.89
					c1.43-0.83,2.15-2.71,2.04-5.31c-0.12-2.68-1.12-5.77-2.81-8.7c-1.69-2.93-3.87-5.34-6.13-6.78C12.11,4.16,10.8,3.71,9.66,3.71"
					/>
				<path class="st1" d="M9.66,27c-0.78,0-1.49-0.18-2.12-0.54c-1.67-0.96-2.52-3.08-2.39-5.95c0.12-2.79,1.15-6,2.9-9.03
					c1.75-3.03,4.01-5.52,6.37-7.02c2.43-1.55,4.68-1.87,6.35-0.91c1.67,0.96,2.52,3.08,2.39,5.95c-0.12,2.79-1.15,6-2.9,9.03
					c-1.75,3.03-4.01,5.52-6.37,7.02C12.38,26.51,10.93,27,9.66,27 M18.64,3.71c-1.14,0-2.45,0.45-3.85,1.34
					c-2.26,1.44-4.44,3.85-6.13,6.78c-1.69,2.93-2.69,6.02-2.81,8.7c-0.11,2.6,0.61,4.49,2.04,5.31c1.43,0.82,3.42,0.51,5.62-0.89
					c2.26-1.44,4.44-3.85,6.13-6.78c1.69-2.93,2.69-6.02,2.81-8.7c0.11-2.6-0.61-4.49-2.04-5.31C19.89,3.85,19.29,3.71,18.64,3.71"
					/>
				<path class="st1" d="M14.15,22.05c-3.49,0-6.79-0.71-9.27-2C2.33,18.72,0.92,16.93,0.92,15c0-1.93,1.41-3.72,3.96-5.05
					c2.48-1.29,5.77-2,9.27-2s6.79,0.71,9.27,2c2.55,1.33,3.96,3.12,3.96,5.05c0,1.93-1.41,3.72-3.96,5.05
					C20.93,21.34,17.64,22.05,14.15,22.05 M14.15,8.66C7.24,8.66,1.63,11.5,1.63,15c0,3.5,5.62,6.34,12.52,6.34
					c6.9,0,12.52-2.84,12.52-6.34C26.67,11.5,21.05,8.66,14.15,8.66"/>
				<path class="st2" d="M14.15,12.35c1.46,0,2.65,1.18,2.65,2.65c0,1.46-1.18,2.65-2.65,2.65c-1.46,0-2.65-1.18-2.65-2.65
					C11.5,13.54,12.69,12.35,14.15,12.35"/>
				<path class="st1" d="M14.15,18c-1.65,0-3-1.35-3-3c0-1.65,1.34-3,3-3c1.65,0,3,1.34,3,3C17.15,16.65,15.8,18,14.15,18
					 M14.15,12.71c-1.26,0-2.29,1.03-2.29,2.29s1.03,2.29,2.29,2.29c1.26,0,2.29-1.03,2.29-2.29S15.41,12.71,14.15,12.71"/>
			</g>
		</g>
	</g>
</g>
</svg>
