<svg xmlns="http://www.w3.org/2000/svg" xmlns:xlink="http://www.w3.org/1999/xlink" width="580.288" height="110" viewBox="0 0 580.288 110">
  <defs>
    <clipPath id="clip-path">
      <rect id="Rectangle_6" data-name="Rectangle 6" width="69.474" height="63.039"/>
    </clipPath>
    <clipPath id="clip-path-5">
      <path id="Path_25" data-name="Path 25" d="M0,0,69.688-.214l-.194,63.233-69.688.214Z"/>
    </clipPath>
    <clipPath id="clip-path-6">
      <path id="Path_27" data-name="Path 27" d="M0,0,69.688-.214l-.194,63.233-69.688.214Z" fill="#fff"/>
    </clipPath>
    <clipPath id="clip-path-9">
      <rect id="Rectangle_26" data-name="Rectangle 26" width="69.474" height="63.039" transform="translate(0 0)"/>
    </clipPath>
    <clipPath id="clip-path-12">
      <rect id="Rectangle_23" data-name="Rectangle 23" width="69.474" height="63.039" fill="#fff"/>
    </clipPath>
  </defs>
  <g id="logo-01" transform="translate(6.972 5.828)">
    <g id="Group_2" data-name="Group 2" transform="translate(98.003 32.955)">
      <g id="Group_1" data-name="Group 1" transform="translate(0 0)">
        <path id="Path_2" data-name="Path 2" d="M32.39,23.757c0-8.9,4.36-14.157,10.585-14.157s10.585,5.253,10.585,14.157c0,9.036-4.36,14.42-10.585,14.42S32.39,32.793,32.39,23.757Zm17.52,0c0-6.934-2.784-11.058-6.934-11.058s-6.934,4.124-6.934,11.058c0,7.066,2.784,11.321,6.934,11.321C47.152,35.052,49.91,30.823,49.91,23.757Z" transform="translate(-32.39 -7.578)" fill="#fff"/>
        <path id="Path_3" data-name="Path 3" d="M42.35,30.549l1.6-2.311a14.6,14.6,0,0,0,8.878,2.784c3.441,0,5.122-1.418,5.122-3.152,0-1.55-.788-2.653-6.356-3.782-5.332-1.1-7.985-2.889-7.985-5.962,0-3.283,2.889-5.8,8.484-5.8a15.364,15.364,0,0,1,8.248,2.6l-1.681,2.233A12.01,12.01,0,0,0,51.806,15c-3.441,0-4.7,1.392-4.7,2.942,0,1.76,1.76,2.522,5.962,3.415,6.777,1.471,8.405,3.152,8.405,6.3,0,3.31-3.231,6.094-9.088,6.094A17.948,17.948,0,0,1,42.35,30.549Z" transform="translate(-16.189 -3.153)" fill="#fff"/>
        <path id="Path_4" data-name="Path 4" d="M59.249,31.978V11.7H52V8.89H62.717V32.214c0,2.942,1.6,4.2,4.045,4.2A9.256,9.256,0,0,0,70.6,35.5l.893,2.6a12.53,12.53,0,0,1-5.463,1.208C61.64,39.333,59.249,36.811,59.249,31.978Z" transform="translate(-0.492 -8.732)" fill="#fff"/>
        <path id="Path_5" data-name="Path 5" d="M61.38,23.079c0-6.855,4.7-10.769,10.086-10.769s10.086,3.914,10.086,10.769c0,6.777-4.7,10.69-10.086,10.69S61.38,29.856,61.38,23.079Zm16.6,0c0-4.7-2.6-7.854-6.514-7.854s-6.514,3.152-6.514,7.854c0,4.675,2.6,7.775,6.514,7.775S77.98,27.755,77.98,23.079Z" transform="translate(14.766 -3.169)" fill="#fff"/>
        <path id="Path_6" data-name="Path 6" d="M80.69,34.123l2.1-2.443a11.657,11.657,0,0,0,8.064,3.415c3.782,0,5.962-1.812,5.962-4.334,0-2.942-2.154-3.782-4.912-4.964l-3.992-1.76c-2.732-1.1-5.936-3.021-5.936-7.118,0-4.2,3.782-7.328,9.036-7.328A12.017,12.017,0,0,1,99.5,13l-1.839,2.259a9.7,9.7,0,0,0-6.777-2.574c-3.2,0-5.332,1.523-5.332,3.992,0,2.653,2.574,3.625,4.912,4.544l3.861,1.734c3.415,1.34,6.094,3.283,6.094,7.355,0,4.386-3.7,7.854-9.745,7.854A13.884,13.884,0,0,1,80.69,34.123Z" transform="translate(46.176 -7.594)" fill="#fff"/>
        <path id="Path_7" data-name="Path 7" d="M90.5,23.079c0-6.855,5.2-10.769,11.4-10.769a10.325,10.325,0,0,1,7.433,2.994L107.6,17.537A8.468,8.468,0,0,0,102,15.226c-4.7,0-7.959,3.152-7.959,7.854,0,4.675,3.2,7.775,7.854,7.775a9.642,9.642,0,0,0,6.3-2.574l1.55,2.259a12.151,12.151,0,0,1-8.116,3.2C95.28,33.769,90.5,29.856,90.5,23.079Z" transform="translate(62.133 -3.169)" fill="#fff"/>
        <path id="Path_8" data-name="Path 8" d="M109.716,21.306H100.26V18.5h12.949V38.931h-3.493Zm-1.392-9.8a2.786,2.786,0,0,1,5.568,0,2.786,2.786,0,0,1-5.568,0Z" transform="translate(78.009 -8.83)" fill="#fff"/>
        <path id="Path_9" data-name="Path 9" d="M109.51,23a10.284,10.284,0,0,1,10.428-10.69c5.884,0,9.324,3.835,9.324,9.587A15.292,15.292,0,0,1,129.1,24H111.821V21.319H127.03l-.893.972c0-4.833-2.39-7.223-6.146-7.223-3.782,0-7.066,2.863-7.066,7.932,0,5.306,3.441,7.985,7.985,7.985a11.139,11.139,0,0,0,6.225-1.944L128.4,31.3a14.055,14.055,0,0,1-7.906,2.443C114.369,33.769,109.51,29.8,109.51,23Z" transform="translate(93.055 -3.169)" fill="#fff"/>
        <path id="Path_10" data-name="Path 10" d="M119.526,12.819h2.863l.289,3.441h.158c2.154-2.233,4.492-3.94,7.7-3.94,4.833,0,7.066,2.863,7.066,8.248V33.254H134.1V21.014c0-3.861-1.34-5.673-4.675-5.673-2.443,0-4.071,1.208-6.435,3.651V33.254H119.5V12.819Z" transform="translate(109.305 -3.153)" fill="#fff"/>
        <path id="Path_11" data-name="Path 11" d="M128.9,23.079c0-6.855,5.227-10.769,11.4-10.769a10.325,10.325,0,0,1,7.433,2.994L146,17.537a8.468,8.468,0,0,0-5.595-2.311c-4.7,0-7.959,3.152-7.959,7.854,0,4.675,3.2,7.775,7.854,7.775a9.642,9.642,0,0,0,6.3-2.574l1.55,2.259a12.2,12.2,0,0,1-8.116,3.2C133.68,33.769,128.9,29.856,128.9,23.079Z" transform="translate(124.595 -3.169)" fill="#fff"/>
        <path id="Path_12" data-name="Path 12" d="M138.31,23a10.284,10.284,0,0,1,10.428-10.69c5.884,0,9.324,3.835,9.324,9.587A15.292,15.292,0,0,1,157.9,24H140.621V21.319H155.83l-.893.972c0-4.833-2.39-7.223-6.146-7.223-3.782,0-7.066,2.863-7.066,7.932,0,5.306,3.441,7.985,7.985,7.985a11.139,11.139,0,0,0,6.225-1.944L157.2,31.3a14.055,14.055,0,0,1-7.906,2.443C143.169,33.769,138.31,29.8,138.31,23Z" transform="translate(139.901 -3.169)" fill="#fff"/>
        <path id="Path_13" data-name="Path 13" d="M157.586,9.79h4.281l3.861,11.767,1.34,4.465h.158l1.313-4.465L172.453,9.79h4.281V37.369h-3.362V23.58c0-2.679.42-7.407.578-9.745h-.131l-1.55,5.385-3.94,10.848h-2.522L161.946,19.22l-1.6-5.385h-.079c.263,2.364.578,7.066.578,9.745v13.79H157.56V9.79Z" transform="translate(171.214 -7.268)" fill="#fff"/>
        <path id="Path_14" data-name="Path 14" d="M167.25,25.2V12.51h3.493V24.75c0,3.835,1.34,5.673,4.7,5.673,2.364,0,4.071-1.1,6.356-3.73V12.536h3.493V32.971h-2.889l-.289-3.572h-.158c-2.049,2.39-4.465,4.071-7.617,4.071C169.483,33.444,167.25,30.581,167.25,25.2Z" transform="translate(186.976 -2.844)" fill="#fff"/>
        <path id="Path_15" data-name="Path 15" d="M176.75,30.549l1.6-2.311a14.6,14.6,0,0,0,8.878,2.784c3.441,0,5.122-1.418,5.122-3.152,0-1.55-.788-2.653-6.356-3.782-5.332-1.1-7.985-2.889-7.985-5.962,0-3.283,2.889-5.8,8.484-5.8a15.364,15.364,0,0,1,8.248,2.6l-1.681,2.233A12.01,12.01,0,0,0,186.206,15c-3.441,0-4.7,1.392-4.7,2.942,0,1.76,1.76,2.522,5.962,3.415,6.777,1.471,8.405,3.152,8.405,6.3,0,3.31-3.231,6.094-9.088,6.094A17.948,17.948,0,0,1,176.75,30.549Z" transform="translate(202.429 -3.153)" fill="#fff"/>
        <path id="Path_16" data-name="Path 16" d="M186.31,23a10.284,10.284,0,0,1,10.428-10.69c5.884,0,9.324,3.835,9.324,9.587A15.293,15.293,0,0,1,205.9,24H188.621V21.319H203.83l-.893.972c0-4.833-2.39-7.223-6.146-7.223-3.782,0-7.066,2.863-7.066,7.932,0,5.306,3.441,7.985,7.985,7.985a11.139,11.139,0,0,0,6.225-1.944L205.2,31.3a14.055,14.055,0,0,1-7.906,2.443C191.169,33.769,186.31,29.8,186.31,23Z" transform="translate(217.979 -3.169)" fill="#fff"/>
        <path id="Path_17" data-name="Path 17" d="M196.05,25.2V12.51h3.493V24.75c0,3.835,1.34,5.673,4.7,5.673,2.364,0,4.071-1.1,6.356-3.73V12.536h3.493V32.971h-2.889l-.289-3.572h-.158c-2.049,2.39-4.465,4.071-7.617,4.071C198.283,33.444,196.05,30.581,196.05,25.2Z" transform="translate(233.822 -2.844)" fill="#fff"/>
        <path id="Path_18" data-name="Path 18" d="M205.34,12.835h2.784l.289,2.679h.079c1.051-1.891,2.311-3.2,4.675-3.2,2.023,0,3.283,1.182,3.861,3.52,1.182-2.18,2.443-3.52,4.807-3.52,2.863,0,4.544,2.233,4.544,6.3v14.63h-3.441V18.877c0-2.364-.683-3.572-2.18-3.572-1.418,0-2.18,1.051-3.283,3.152V33.244h-3.2V18.877c0-2.364-.578-3.572-2.1-3.572-1.418,0-2.364,1.051-3.362,3.152V33.244h-3.441V12.835Z" transform="translate(248.934 -3.169)" fill="#fff"/>
      </g>
    </g>
    <g id="Icon_1_" transform="translate(-6.684 -5.828)">
      <g id="Group_17" data-name="Group 17" transform="translate(0)">
        <g id="Group_3" data-name="Group 3" transform="translate(19.972 23.477)" clip-path="url(#clip-path)">
          <rect id="Rectangle_5" data-name="Rectangle 5" width="1.865" height="3.704" transform="translate(33.831 40.791)" fill="#fff"/>
        </g>
        <g id="Group_4" data-name="Group 4" transform="translate(19.972 23.477)" clip-path="url(#clip-path)">
          <rect id="Rectangle_7" data-name="Rectangle 7" width="1.865" height="3.704" transform="translate(33.831 18.544)" fill="#fff"/>
        </g>
        <g id="Group_5" data-name="Group 5" transform="translate(19.972 23.477)" clip-path="url(#clip-path)">
          <rect id="Rectangle_9" data-name="Rectangle 9" width="3.704" height="1.865" transform="translate(21.775 30.6)" fill="#fff"/>
        </g>
        <g id="Group_6" data-name="Group 6" transform="translate(19.972 23.477)" clip-path="url(#clip-path)">
          <path id="Path_32" data-name="Path 32" d="M0,0H3.7V1.865H0Z" transform="translate(44.022 30.6)" fill="#fff"/>
        </g>
        <g id="Group_7" data-name="Group 7" transform="matrix(0.707, -0.707, 0.707, 0.707, 4.603, 65.145)" clip-path="url(#clip-path-5)">
          <path id="Path_24" data-name="Path 24" d="M0,0,1.871-.006,1.859,3.709l-1.871.006Z" transform="translate(41.697 37.522)" fill="#fff"/>
        </g>
        <g id="Group_8" data-name="Group 8" transform="translate(11.116 49.427) rotate(-45)" clip-path="url(#clip-path-6)">
          <path id="Path_26" data-name="Path 26" d="M0,0,1.871-.006,1.859,3.709l-1.871.006Z" transform="translate(25.964 21.788)" fill="#fff"/>
        </g>
        <g id="Group_9" data-name="Group 9" transform="translate(0 54.035) rotate(-45)" clip-path="url(#clip-path-5)">
          <path id="Path_28" data-name="Path 28" d="M0,0,3.715-.011,3.709,1.859l-3.715.011Z" transform="translate(24.99 38.495)" fill="#fff"/>
        </g>
        <g id="Group_10" data-name="Group 10" transform="matrix(0.707, -0.707, 0.707, 0.707, 15.72, 60.537)" clip-path="url(#clip-path-5)">
          <path id="Path_30" data-name="Path 30" d="M0,0,3.715-.011,3.709,1.859l-3.715.011Z" transform="translate(40.794 22.665)" fill="#fff"/>
        </g>
        <g id="Group_16" data-name="Group 16" transform="translate(19.972 23.477)" clip-path="url(#clip-path-9)">
          <g id="Group_11" data-name="Group 11" transform="translate(0 0)" clip-path="url(#clip-path)">
            <path id="Path_19" data-name="Path 19" d="M40.618,66.043c-3.362,0-7.144-1.287-11.111-3.809-6.2-3.94-12.135-10.506-16.732-18.439C8.205,35.837,5.5,27.406,5.158,20.077,4.843,12.513,7.076,6.971,11.436,4.423c4.386-2.522,10.3-1.681,16.679,2.39,6.2,3.94,12.135,10.506,16.732,18.439,4.6,7.959,7.3,16.364,7.617,23.718.341,7.565-1.891,13.107-6.278,15.628a10.8,10.8,0,0,1-5.568,1.445M17.03,4.869a8.879,8.879,0,0,0-4.649,1.182C8.625,8.205,6.708,13.169,7.023,20,7.338,27.038,9.965,35.154,14.4,42.85s10.165,14.026,16.1,17.808C36.257,64.336,41.511,65.176,45.267,63s5.647-7.118,5.358-13.947C50.31,42.01,47.683,33.893,43.244,26.2S33.079,12.171,27.143,8.389c-3.677-2.338-7.118-3.52-10.112-3.52" transform="translate(5.926 -3.004)" fill="#fff"/>
          </g>
          <g id="Group_12" data-name="Group 12" transform="translate(0 0)" clip-path="url(#clip-path)">
            <path id="Path_20" data-name="Path 20" d="M17.017,66.027a11.045,11.045,0,0,1-5.568-1.418C7.062,62.087,4.83,56.519,5.171,48.98c.315-7.328,3.021-15.76,7.617-23.718S23.321,10.763,29.52,6.823C35.9,2.752,41.812,1.911,46.2,4.433s6.619,8.09,6.278,15.628c-.315,7.328-3.021,15.76-7.617,23.718s-10.533,14.5-16.732,18.439c-3.966,2.522-7.775,3.809-11.111,3.809M40.6,4.853c-2.994,0-6.435,1.182-10.112,3.52-5.936,3.782-11.662,10.112-16.1,17.808S7.325,41.993,7.01,49.033c-.289,6.829,1.6,11.794,5.358,13.947s8.983,1.34,14.762-2.338c5.936-3.782,11.662-10.112,16.1-17.808S50.3,27.022,50.612,19.982c.289-6.829-1.6-11.794-5.358-13.947A8.944,8.944,0,0,0,40.6,4.853" transform="translate(5.939 -2.988)" fill="#fff"/>
          </g>
          <g id="Group_13" data-name="Group 13" transform="translate(0 0)" clip-path="url(#clip-path-12)">
            <path id="Path_21" data-name="Path 21" d="M35.67,44.985c-9.167,0-17.835-1.865-24.349-5.253-6.7-3.493-10.4-8.2-10.4-13.264s3.7-9.771,10.4-13.264C17.835,9.815,26.477,7.95,35.67,7.95S53.5,9.815,60.019,13.2c6.7,3.493,10.4,8.2,10.4,13.264s-3.7,9.771-10.4,13.264c-6.54,3.388-15.182,5.253-24.349,5.253m0-35.17c-18.15,0-32.885,7.46-32.885,16.653S17.546,43.12,35.67,43.12s32.885-7.46,32.885-16.653S53.794,9.815,35.67,9.815" transform="translate(-0.92 5.052)" fill="#fff"/>
          </g>
          <g id="Group_14" data-name="Group 14" transform="translate(0 0)" clip-path="url(#clip-path-12)">
            <path id="Path_22" data-name="Path 22" d="M18.461,12.35A6.961,6.961,0,1,1,11.5,19.311a6.956,6.956,0,0,1,6.961-6.961" transform="translate(16.29 12.209)" fill="#ff8c1a"/>
          </g>
          <g id="Group_15" data-name="Group 15" transform="translate(0 0)" clip-path="url(#clip-path)">
            <path id="Path_23" data-name="Path 23" d="M19.03,27.76a7.88,7.88,0,1,1,7.88-7.88,7.9,7.9,0,0,1-7.88,7.88m0-13.895a6.015,6.015,0,1,0,6.015,6.015,6.031,6.031,0,0,0-6.015-6.015" transform="translate(15.72 11.64)" fill="#fff"/>
          </g>
        </g>
      </g>
    </g>
  </g>
</svg>
